<?xml version="1.0" encoding="UTF-8"?>
<svg id="Capa_2" data-name="Capa 2" xmlns="http://www.w3.org/2000/svg" viewBox="0 0 1574.98 321.32">
  <defs>
    <style>
      .cls-1 {
        fill: #1d1d1b;
      }
    </style>
  </defs>
  <g id="Portada">
    <g>
      <path class="cls-1" d="M292.31,266.93c-3.52,0-6.93-.88-10.23-2.64-3.3-1.76-5.98-4.66-8.03-8.69-2.06-4.03-3.08-9.49-3.08-16.39s1.24-14.3,3.74-21.78c2.49-7.48,5.86-14.66,10.12-21.56,4.25-6.89,9.09-13.09,14.52-18.59,5.42-5.5,11.18-9.86,17.27-13.09,6.08-3.22,12.06-4.84,17.93-4.84,2.64,0,5.13.48,7.48,1.43,2.34.96,4.47,2.31,6.38,4.07,1.9,1.76,3.52,3.89,4.84,6.38l-3.52,5.06c-2.35-2.79-5.06-5.02-8.14-6.71-3.08-1.68-6.46-2.53-10.12-2.53-3.38,0-6.71.55-10.01,1.65s-6.49,2.68-9.57,4.73c-3.08,2.06-5.94,4.48-8.58,7.26-4.55,4.55-8.51,9.9-11.88,16.06-3.38,6.16-5.98,12.58-7.81,19.25-1.84,6.68-2.75,13.17-2.75,19.47,0,8.07,1.43,13.94,4.29,17.6,2.86,3.67,6.63,5.5,11.33,5.5,4.25,0,8.47-1.32,12.65-3.96s8.69-6.45,13.53-11.44c4.84-4.98,10.12-11,15.84-18.04l1.76,2.2h-.44c-4.84,7.19-9.87,13.79-15.07,19.8-5.21,6.02-10.49,10.82-15.84,14.41-5.36,3.59-10.89,5.39-16.61,5.39ZM339.61,266.93c-2.94,0-5.39-.92-7.37-2.75-1.98-1.83-2.97-4.36-2.97-7.59,0-1.76.07-3.41.22-4.95.14-1.54.44-3.37.88-5.5.44-2.12,1.02-4.88,1.76-8.25l.22-1.1,14.3-68.42.66-.88,8.36-8.8,2.2,1.54-17.16,80.3c-.44,2.2-.88,4.48-1.32,6.82-.44,2.35-.66,4.48-.66,6.38,0,1.62.51,2.79,1.54,3.52,1.02.74,2.34,1.1,3.96,1.1,3.37,0,7.11-1.61,11.22-4.84,4.1-3.22,8.14-7.4,12.1-12.54l3.08,2.2c-2.79,4.26-5.8,8.18-9.02,11.77-3.23,3.6-6.67,6.49-10.34,8.69-3.67,2.2-7.56,3.3-11.66,3.3Z"/>
      <path class="cls-1" d="M390.64,265.39l-1.54-1.32,20.24-95.7,1.76,1.98-25.96-1.1.44-3.74,31.9-5.72,2.2,1.98-5.06,25.52-.22.66-6.6,31.24c-1.62,7.48-3.08,14.85-4.4,22.11s-2.79,14.85-4.4,22.77l-8.36,1.32ZM446.96,265.39l-1.54-1.32,14.74-69.3c.58-2.78,1.17-5.79,1.76-9.02.58-3.22.88-6.08.88-8.58,0-3.22-.77-5.61-2.31-7.15s-3.63-2.31-6.27-2.31c-3.52,0-7.34.88-11.44,2.64-4.11,1.76-8.8,4.55-14.08,8.36-5.28,3.81-11.52,8.8-18.7,14.96l-.22-4.4h.88c5.42-5.72,11.04-10.81,16.83-15.29,5.79-4.47,11.4-8.03,16.83-10.67,5.42-2.64,10.34-3.96,14.74-3.96,4.69,0,8.14,1.29,10.34,3.85,2.2,2.57,3.3,6.05,3.3,10.45,0,2.5-.19,4.88-.55,7.15-.37,2.28-.85,4.58-1.43,6.93l-.44,1.76-6.38,29.7c-1.47,7.48-2.9,14.85-4.29,22.11-1.4,7.26-2.83,14.85-4.29,22.77l-8.36,1.32ZM512.3,266.93c-2.94,0-5.36-.85-7.26-2.53-1.91-1.68-2.86-3.99-2.86-6.93,0-2.2.25-4.47.77-6.82.51-2.34,1.13-5.21,1.87-8.58l10.34-45.1c.73-3.52,1.46-7,2.2-10.45.73-3.44,1.1-6.49,1.1-9.13,0-3.37-.77-5.83-2.31-7.37s-3.71-2.31-6.49-2.31c-3.38,0-7.04.88-11,2.64-3.96,1.76-8.51,4.51-13.64,8.25-5.14,3.74-11.22,8.69-18.26,14.85l-.22-4.4h.88c5.42-5.72,10.92-10.81,16.5-15.29,5.57-4.47,11-7.99,16.28-10.56,5.28-2.56,10.04-3.85,14.3-3.85,4.69,0,8.17,1.29,10.45,3.85,2.27,2.57,3.41,6.05,3.41,10.45,0,3.38-.33,6.68-.99,9.9-.66,3.23-1.43,6.89-2.31,11l-10.56,45.76c-.59,2.35-1.14,4.66-1.65,6.93-.52,2.28-.77,4.29-.77,6.05,0,1.62.47,2.86,1.43,3.74.95.88,2.23,1.32,3.85,1.32,3.37,0,7.04-1.57,11-4.73,3.96-3.15,8.14-7.37,12.54-12.65l2.86,2.2c-2.94,4.26-6.05,8.18-9.35,11.77-3.3,3.6-6.75,6.49-10.34,8.69-3.6,2.2-7.52,3.3-11.77,3.3Z"/>
      <path class="cls-1" d="M589.52,266.93c-5.58,0-10.71-1.32-15.4-3.96-4.7-2.64-8.47-6.71-11.33-12.21s-4.29-12.65-4.29-21.45,1.5-17.12,4.51-25.41c3-8.29,7.11-15.76,12.32-22.44,5.2-6.67,11.11-12.03,17.71-16.06,6.6-4.03,13.56-6.05,20.9-6.05,5.86,0,10.7,1.47,14.52,4.4,3.81,2.94,5.72,7.34,5.72,13.2,0,4.7-1.4,9.32-4.18,13.86-2.79,4.55-7.04,8.99-12.76,13.31-5.72,4.33-12.98,8.4-21.78,12.21-8.8,3.82-19.22,7.34-31.24,10.56l-.44-4.4c13.78-3.66,25.26-7.92,34.43-12.76,9.16-4.84,15.98-9.97,20.46-15.4,4.47-5.42,6.71-11,6.71-16.72,0-4.1-1.21-7.29-3.63-9.57-2.42-2.27-5.69-3.41-9.79-3.41-5.28,0-10.53,1.76-15.73,5.28-5.21,3.52-9.98,8.29-14.3,14.3-4.33,6.02-7.78,12.72-10.34,20.13-2.57,7.41-3.85,14.93-3.85,22.55,0,10.71,2.31,18.63,6.93,23.76,4.62,5.14,10.67,7.7,18.15,7.7,4.25,0,8.21-.77,11.88-2.31,3.66-1.54,7.07-3.67,10.23-6.38,3.15-2.71,5.97-5.83,8.47-9.35l3.08,2.2c-2.35,3.67-4.84,6.97-7.48,9.9-2.64,2.94-5.54,5.5-8.69,7.7-3.16,2.2-6.46,3.89-9.9,5.06-3.45,1.17-7.08,1.76-10.89,1.76Z"/>
    </g>
    <g>
      <path class="cls-1" d="M948,263.89c-5.72,0-11.11-1.36-16.17-4.07-5.06-2.71-9.17-6.89-12.32-12.54-3.16-5.64-4.73-12.79-4.73-21.45s1.32-17.08,3.96-25.3c2.64-8.21,6.3-15.65,11-22.33,4.69-6.67,10.23-11.99,16.61-15.95,6.38-3.96,13.38-5.94,21.01-5.94,6.01,0,11.51,1.4,16.5,4.18,4.98,2.79,8.98,6.97,11.99,12.54,3,5.58,4.51,12.76,4.51,21.56s-1.32,17.35-3.96,25.63c-2.64,8.29-6.35,15.7-11.11,22.22-4.77,6.53-10.31,11.74-16.61,15.62-6.31,3.88-13.2,5.83-20.68,5.83ZM949.1,258.83c4.69,0,9.13-1.21,13.31-3.63,4.18-2.42,7.99-5.75,11.44-10.01,3.44-4.25,6.38-9.05,8.8-14.41,2.42-5.35,4.29-11.07,5.61-17.16,1.32-6.08,1.98-12.13,1.98-18.15,0-11.73-2.2-20.35-6.6-25.85s-10.12-8.25-17.16-8.25c-4.84,0-9.39,1.21-13.64,3.63-4.26,2.42-8.11,5.72-11.55,9.9-3.45,4.18-6.38,9.02-8.8,14.52-2.42,5.5-4.29,11.3-5.61,17.38-1.32,6.09-1.98,12.21-1.98,18.37,0,11.59,2.27,20.1,6.82,25.52,4.54,5.43,10.34,8.14,17.38,8.14Z"/>
      <path class="cls-1" d="M1023.01,261.03l20.24-95.7,1.76,1.98-25.96-1.1.44-3.74,31.24-5.72,2.42,1.98-6.82,35.42-.44,2.2-4.18,19.8c-1.62,7.48-3.08,14.85-4.4,22.11-1.32,7.26-2.79,14.85-4.4,22.77l-8.58,1.32-1.32-1.32ZM1043.69,202.73l-1.54-6.16h1.76c3.37-7.04,7.11-13.6,11.22-19.69,4.1-6.08,8.43-11.04,12.98-14.85,4.54-3.81,9.17-5.72,13.86-5.72,3.37,0,6.08.44,8.14,1.32,2.05.88,3.59,2.28,4.62,4.18-.15,2.5-.92,4.48-2.31,5.94-1.4,1.47-3.41,2.2-6.05,2.2-2.06,0-4.07-.47-6.05-1.43-1.98-.95-4.15-2.31-6.49-4.07l-2.86-2.42,7.48-1.54v1.1c-3.96,1.76-7.92,4.59-11.88,8.47-3.96,3.89-7.81,8.58-11.55,14.08s-7.52,11.7-11.33,18.59Z"/>
      <path class="cls-1" d="M1111.01,263.89c-3.67,0-7.08-.88-10.23-2.64-3.16-1.76-5.65-4.65-7.48-8.69-1.83-4.03-2.75-9.35-2.75-15.95,0-7.18,1.25-14.55,3.74-22.11,2.49-7.55,5.94-14.77,10.34-21.67,4.4-6.89,9.35-13.09,14.85-18.59s11.36-9.86,17.6-13.09c6.23-3.22,12.35-4.84,18.37-4.84,2.49,0,4.87.37,7.15,1.1,2.27.74,4.43,1.84,6.49,3.3,2.05,1.47,3.88,3.38,5.5,5.72l-3.74,6.16c-2.79-2.78-5.76-4.91-8.91-6.38-3.16-1.46-6.42-2.2-9.79-2.2s-6.71.55-10.01,1.65c-3.3,1.1-6.49,2.64-9.57,4.62s-6.02,4.29-8.8,6.93c-4.7,4.7-8.8,10.16-12.32,16.39-3.52,6.24-6.24,12.76-8.14,19.58-1.91,6.82-2.86,13.46-2.86,19.91,0,7.48,1.28,13.09,3.85,16.83,2.56,3.74,6.19,5.61,10.89,5.61,4.4,0,8.87-1.32,13.42-3.96,4.54-2.64,9.42-6.45,14.63-11.44,5.2-4.98,10.81-11,16.83-18.04l2.42,2.2h-1.32c-4.7,7.19-9.9,13.75-15.62,19.69-5.72,5.94-11.55,10.75-17.49,14.41-5.94,3.66-11.63,5.5-17.05,5.5ZM1114.97,316.03l.88-4.62,24.64-2.2h4.18l23.1,2.2-.88,4.62h-51.92ZM1136.53,316.03l17.6-84.04.44-1.76,13.64-64.68.44-.66,8.14-8.8,2.2,1.54-24.64,116.38c-1.47,7.04-2.9,14.04-4.29,21.01-1.4,6.96-2.75,13.97-4.07,21.01h-9.46Z"/>
      <path class="cls-1" d="M1217.93,263.89c-2.94,0-5.47-.55-7.59-1.65-2.13-1.1-3.71-2.78-4.73-5.06-1.03-2.27-1.54-5.02-1.54-8.25,0-3.81.4-7.88,1.21-12.21.8-4.32,1.65-8.54,2.53-12.65l12.98-59.18,1.32,2.2-23.98-.88.66-3.74,30.58-5.72,2.2,1.76-13.86,62.7c-.44,2.64-.99,5.5-1.65,8.58-.66,3.08-1.21,6.02-1.65,8.8-.44,2.79-.66,5.14-.66,7.04,0,3.08.73,5.43,2.2,7.04,1.46,1.62,3.74,2.42,6.82,2.42,3.37,0,7.18-.84,11.44-2.53,4.25-1.68,9.2-4.47,14.85-8.36,5.64-3.88,12.06-9.13,19.25-15.73l1.1,3.74h-1.1c-6.46,6.6-12.62,12.25-18.48,16.94-5.87,4.7-11.44,8.33-16.72,10.89-5.28,2.56-10.34,3.85-15.18,3.85ZM1270.07,263.89c-3.08,0-5.54-.92-7.37-2.75-1.83-1.83-2.75-4.36-2.75-7.59,0-1.9.22-4.07.66-6.49.44-2.42,1.24-6.05,2.42-10.89l-.22-.22,7.04-33.44c1.46-7.18,2.86-14.26,4.18-21.23,1.32-6.96,2.64-14.19,3.96-21.67l8.36-2.86,1.76,1.54-16.5,79.2c-.44,2.2-.88,4.44-1.32,6.71-.44,2.28-.66,4.29-.66,6.05,0,1.62.47,2.86,1.43,3.74.95.88,2.23,1.32,3.85,1.32,3.37,0,7.08-1.57,11.11-4.73,4.03-3.15,8.17-7.37,12.43-12.65l2.86,2.2c-2.94,4.25-6.02,8.18-9.24,11.77-3.23,3.6-6.68,6.49-10.34,8.69-3.67,2.2-7.56,3.3-11.66,3.3Z"/>
      <path class="cls-1" d="M1345.97,263.89c-5.58,0-10.71-1.32-15.4-3.96-4.7-2.64-8.47-6.71-11.33-12.21s-4.29-12.65-4.29-21.45,1.5-17.12,4.51-25.41c3-8.28,7.11-15.76,12.32-22.44,5.2-6.67,11.11-12.02,17.71-16.06,6.6-4.03,13.56-6.05,20.9-6.05,5.86,0,10.7,1.47,14.52,4.4,3.81,2.94,5.72,7.33,5.72,13.2,0,4.7-1.4,9.32-4.18,13.86-2.79,4.55-7.04,8.99-12.76,13.31-5.72,4.33-12.98,8.4-21.78,12.21-8.8,3.82-19.22,7.34-31.24,10.56l-.44-4.4c13.78-3.66,25.26-7.92,34.43-12.76,9.16-4.84,15.98-9.97,20.46-15.4,4.47-5.42,6.71-11,6.71-16.72,0-4.1-1.21-7.29-3.63-9.57-2.42-2.27-5.69-3.41-9.79-3.41-5.28,0-10.53,1.76-15.73,5.28-5.21,3.52-9.98,8.29-14.3,14.3-4.33,6.02-7.78,12.73-10.34,20.13-2.57,7.41-3.85,14.93-3.85,22.55,0,10.71,2.31,18.63,6.93,23.76,4.62,5.14,10.67,7.7,18.15,7.7,4.25,0,8.21-.77,11.88-2.31,3.66-1.54,7.07-3.66,10.23-6.38,3.15-2.71,5.97-5.83,8.47-9.35l3.08,2.2c-2.35,3.67-4.84,6.97-7.48,9.9-2.64,2.94-5.54,5.5-8.69,7.7-3.16,2.2-6.46,3.89-9.9,5.06-3.45,1.17-7.08,1.76-10.89,1.76Z"/>
      <path class="cls-1" d="M1408,261.03l20.24-95.7,1.76,1.98-25.96-1.1.44-3.74,31.24-5.72,2.42,1.98-6.82,35.42-.44,2.2-4.18,19.8c-1.62,7.48-3.08,14.85-4.4,22.11-1.32,7.26-2.79,14.85-4.4,22.77l-8.58,1.32-1.32-1.32ZM1428.68,202.73l-1.54-6.16h1.76c3.37-7.04,7.11-13.6,11.22-19.69,4.1-6.08,8.43-11.04,12.98-14.85,4.54-3.81,9.17-5.72,13.86-5.72,3.37,0,6.08.44,8.14,1.32,2.05.88,3.59,2.28,4.62,4.18-.15,2.5-.92,4.48-2.31,5.94-1.4,1.47-3.41,2.2-6.05,2.2-2.06,0-4.07-.47-6.05-1.43-1.98-.95-4.15-2.31-6.49-4.07l-2.86-2.42,7.48-1.54v1.1c-3.96,1.76-7.92,4.59-11.88,8.47-3.96,3.89-7.81,8.58-11.55,14.08s-7.52,11.7-11.33,18.59Z"/>
      <path class="cls-1" d="M1496.66,263.89c-3.52,0-6.93-.88-10.23-2.64-3.3-1.76-5.98-4.65-8.03-8.69-2.06-4.03-3.08-9.49-3.08-16.39s1.24-14.3,3.74-21.78c2.49-7.48,5.86-14.66,10.12-21.56,4.25-6.89,9.09-13.09,14.52-18.59,5.42-5.5,11.18-9.86,17.27-13.09,6.08-3.22,12.06-4.84,17.93-4.84,2.64,0,5.13.48,7.48,1.43,2.34.96,4.47,2.31,6.38,4.07,1.9,1.76,3.52,3.89,4.84,6.38l-3.52,5.06c-2.35-2.78-5.06-5.02-8.14-6.71-3.08-1.68-6.46-2.53-10.12-2.53-3.38,0-6.71.55-10.01,1.65s-6.49,2.68-9.57,4.73c-3.08,2.05-5.94,4.47-8.58,7.26-4.55,4.55-8.51,9.9-11.88,16.06-3.38,6.16-5.98,12.58-7.81,19.25-1.84,6.67-2.75,13.17-2.75,19.47,0,8.07,1.43,13.94,4.29,17.6,2.86,3.67,6.63,5.5,11.33,5.5,4.25,0,8.47-1.32,12.65-3.96s8.69-6.45,13.53-11.44c4.84-4.98,10.12-11,15.84-18.04l1.76,2.2h-.44c-4.84,7.19-9.87,13.79-15.07,19.8-5.21,6.02-10.49,10.82-15.84,14.41-5.36,3.59-10.89,5.39-16.61,5.39ZM1543.96,263.89c-2.94,0-5.39-.92-7.37-2.75-1.98-1.83-2.97-4.36-2.97-7.59,0-1.76.07-3.41.22-4.95.14-1.54.44-3.37.88-5.5.44-2.12,1.02-4.87,1.76-8.25l.22-1.1,14.3-68.42.66-.88,8.36-8.8,2.2,1.54-17.16,80.3c-.44,2.2-.88,4.48-1.32,6.82-.44,2.35-.66,4.48-.66,6.38,0,1.62.51,2.79,1.54,3.52,1.02.73,2.34,1.1,3.96,1.1,3.37,0,7.11-1.61,11.22-4.84,4.1-3.22,8.14-7.4,12.1-12.54l3.08,2.2c-2.79,4.25-5.8,8.18-9.02,11.77-3.23,3.6-6.67,6.49-10.34,8.69-3.67,2.2-7.56,3.3-11.66,3.3Z"/>
    </g>
    <path class="cls-1" d="M88.05,140.52c-2.7,0-6.16-1.93-6.16-5.78,0-37.34,37.73-94.32,92.78-94.32,27.33,0,38.88,17.71,38.88,39.27,0,44.66-47.35,112.8-110.49,112.8C-6.28,192.5,48.78,0,204.32,0c46.58,0,77,21.56,91.24,49.66,20.79-15.79,43.5-26.18,69.68-26.18,74.3,0,55.82,102.41-3.08,102.41-52.74,0-43.5-73.92,1.54-73.92,1.54,0,1.54,1.92,0,1.92-41.96,0-51.59,69.68-1.54,69.68,55.44,0,73.53-97.79,3.08-97.79-26.95,0-48.51,11.55-66.99,29.26,21.17,49.66-6.93,115.5-86.24,119.73-26.95,37.34-64.29,74.69-113.19,92.78,16.55,5,32.72,9.24,46.97,9.24,53.9,0,78.15-27.33,78.15-46.97,0-8.08-3.85-15.4-12.7-19.25-1.16-.38-.77-2.31.77-1.54,9.62,3.46,14.63,11.93,14.63,22.33,0,21.56-23.1,50.43-73.92,50.43-22.33,0-42.35-5.39-61.21-11.94-16.94,5.78-35.42,8.86-55.05,8.86-46.97,0-46.2-28.49-11.17-28.49,20.41,0,44.27,8.86,67.76,15.79,44.27-17.32,74.69-54.67,100.87-91.63-7.31-1.15-13.47-4.62-18.48-9.24-.77-1.15.38-2.31,1.54-1.54,5.77,5,11.55,7.7,18.48,8.85l2.7-3.85c28.49-40.42,57.75-86.24,93.17-115.5-11.17-28.49-39.65-50.82-87.01-50.82C52.24,2.31-3.2,190.19,103.06,190.19c61.6,0,108.18-66.6,108.18-110.49,0-20.79-10.4-36.96-36.58-36.96-53.9,0-95.86,59.29-81.62,89.32,2.31,4.24-1.54,8.47-5,8.47ZM86.51,268.34c-21.95-7.7-41.96-15.79-61.21-15.79-31.57,0-33.11,23.87,11.17,23.87,18.48,0,35.03-3.08,50.05-8.08ZM293.63,59.67c-28.1,28.88-50.82,71.61-77.77,110.11l-1.92,2.69c63.91-6.16,93.94-65.83,79.69-112.8Z"/>
    <path class="cls-1" d="M882.92,172.22c-38.69,74.19-84.13,149.1-175.01,149.1-51.47,0-72.77-34.79-72.77-72.06,0-45.79,43.31-92.65,94.78-92.65,45.44,0,64.96,29.82,64.96,59.28,0,37.63-31.24,77.03-81.29,77.03-30.88,0-46.5-15.27-50.41-34.79,0-1.42,1.42-1.78,1.77-.36,3.55,18.11,17.4,32.3,46.5,32.3,43.31,0,76.32-41.89,76.32-79.52,0-26.27-16.69-51.83-57.86-51.83-50.76,0-92.65,46.15-92.65,90.52,0,36.21,20.23,69.93,70.64,69.93,73.48,0,118.21-74.55,160.46-148.39-62.83-15.26-39.4-139.16,74.55-139.16,9.58,0,22.37,2.13,33.01,3.55,11.36-5.33,23.07-8.52,35.85-8.52,14.91,0,18.81,12.07-20.23,12.07-3.91,0-9.23-.35-14.91-1.06-12.78,7.1-24.5,18.11-35.14,31.95,32.66,19.88,5.33,102.24-58.57,102.59ZM924.46,67.5c-28.04,0-43.66,16.68-43.66,35.5,0,1.77.35,6.39.35,6.75,0,3.9-2.84,4.97-4.61,4.97-2.49,0-4.97-1.77-4.97-4.62,0-2.13,7.46-44.73,52.89-44.73,6.04,0,11.71,1.78,11.71,1.78,11.71-12.78,23.43-23.07,36.56-30.17-10.29-1.42-21.65-3.19-29.82-3.19-105.79,0-132.41,119.99-73.48,134.9,21.3-36.92,41.54-73.13,64.96-99.75,0,0-4.26-1.42-9.94-1.42ZM940.08,71.4c-20.23,26.62-37.27,62.48-56.09,98.69,61.06-1.42,87.33-80.23,56.09-98.69Z"/>
  </g>
</svg>