<?xml version="1.0" encoding="UTF-8"?>
<svg id="Capa_2" data-name="Capa 2" xmlns="http://www.w3.org/2000/svg" viewBox="0 0 499.2 355.09">
  <defs>
    <style>
      .cls-1 {
        fill: #1d1d1b;
      }
    </style>
  </defs>
  <g id="Portada">
    <g>
      <path class="cls-1" d="M0,155.54l5.5-30.36h5.94l-.66,31.24-5.72-5.5c4.98,3.52,10.12,6.09,15.4,7.7,5.28,1.62,11,2.42,17.16,2.42,7.62,0,14.33-1.32,20.13-3.96,5.79-2.64,10.3-6.38,13.53-11.22,3.22-4.84,4.84-10.41,4.84-16.72,0-4.98-1.03-9.42-3.08-13.31-2.06-3.88-5.1-7.73-9.13-11.55-4.04-3.81-9.06-7.99-15.07-12.54-6.02-4.69-11-9.13-14.96-13.31s-6.97-8.47-9.02-12.87c-2.06-4.4-3.08-9.16-3.08-14.3,0-8.21,1.98-15.18,5.94-20.9,3.96-5.72,9.27-10.08,15.95-13.09,6.67-3,14.04-4.51,22.11-4.51,4.4,0,8.58.37,12.54,1.1,3.96.74,7.77,1.8,11.44,3.19,3.66,1.4,7.33,3.27,11,5.61l-5.72,29.92h-5.94l1.1-31.02,3.96,5.06c-4.84-3.08-9.46-5.21-13.86-6.38-4.4-1.17-9.02-1.76-13.86-1.76-6.46,0-12.36,1.14-17.71,3.41-5.36,2.28-9.61,5.61-12.76,10.01-3.16,4.4-4.73,9.98-4.73,16.72,0,4.7.88,8.95,2.64,12.76,1.76,3.82,4.4,7.45,7.92,10.89,3.52,3.45,7.84,7.15,12.98,11.11,6.75,5.14,12.39,9.94,16.94,14.41,4.54,4.48,8.03,8.99,10.45,13.53,2.42,4.55,3.63,9.76,3.63,15.62,0,8.36-2.13,15.51-6.38,21.45-4.26,5.94-9.98,10.53-17.16,13.75-7.19,3.22-15.4,4.84-24.64,4.84-4.7,0-9.35-.48-13.97-1.43-4.62-.96-8.95-2.31-12.98-4.07-4.04-1.76-7.59-3.74-10.67-5.94Z"/>
      <path class="cls-1" d="M142.56,166.76c-5.72,0-11.11-1.36-16.17-4.07-5.06-2.71-9.17-6.89-12.32-12.54-3.16-5.64-4.73-12.79-4.73-21.45s1.32-17.08,3.96-25.3c2.64-8.21,6.3-15.65,11-22.33,4.69-6.67,10.23-11.99,16.61-15.95,6.38-3.96,13.38-5.94,21.01-5.94,6.01,0,11.51,1.4,16.5,4.18,4.98,2.79,8.98,6.97,11.99,12.54,3,5.58,4.51,12.76,4.51,21.56s-1.32,17.35-3.96,25.63c-2.64,8.29-6.35,15.7-11.11,22.22-4.77,6.53-10.31,11.74-16.61,15.62-6.31,3.88-13.2,5.83-20.68,5.83ZM143.66,161.7c4.69,0,9.13-1.21,13.31-3.63,4.18-2.42,7.99-5.75,11.44-10.01,3.44-4.25,6.38-9.05,8.8-14.41,2.42-5.35,4.29-11.07,5.61-17.16,1.32-6.08,1.98-12.13,1.98-18.15,0-11.73-2.2-20.35-6.6-25.85s-10.12-8.25-17.16-8.25c-4.84,0-9.39,1.21-13.64,3.63-4.26,2.42-8.11,5.72-11.55,9.9-3.45,4.18-6.38,9.02-8.8,14.52-2.42,5.5-4.29,11.29-5.61,17.38-1.32,6.09-1.98,12.21-1.98,18.37,0,11.59,2.27,20.1,6.82,25.52,4.54,5.43,10.34,8.14,17.38,8.14Z"/>
      <path class="cls-1" d="M236.06,166.76c-3.23,0-6.12-.52-8.69-1.54-2.57-1.03-4.7-2.45-6.38-4.29-1.69-1.83-2.94-4.03-3.74-6.6-.81-2.56-1.21-5.39-1.21-8.47,0-4.4.47-8.98,1.43-13.75.95-4.76,1.94-9.64,2.97-14.63L243.54,7.48l1.32,2.86-25.96-1.1.44-3.74L251.9,0l1.98,1.76-18.92,90.2-.44,2.2-4.62,22.44c-.88,3.67-1.65,7.01-2.31,10.01-.66,3.01-1.18,5.83-1.54,8.47-.37,2.64-.55,5.43-.55,8.36,0,4.4,1.1,8.11,3.3,11.11,2.2,3.01,6.01,4.51,11.44,4.51,4.54,0,9.24-1.1,14.08-3.3,4.84-2.2,9.53-5.57,14.08-10.12,4.54-4.69,8.5-10.12,11.88-16.28,3.37-6.16,5.97-12.68,7.81-19.58,1.83-6.89,2.75-13.42,2.75-19.58,0-7.92-1.32-13.67-3.96-17.27-2.64-3.59-6.31-5.39-11-5.39-4.4,0-8.99,1.32-13.75,3.96-4.77,2.64-9.76,6.42-14.96,11.33-5.21,4.92-10.75,10.75-16.61,17.49l-2.2-1.1h.66c4.84-7.62,10.12-14.44,15.84-20.46,5.72-6.01,11.66-10.78,17.82-14.3,6.16-3.52,11.95-5.28,17.38-5.28,3.67,0,7.07.88,10.23,2.64,3.15,1.76,5.68,4.62,7.59,8.58,1.9,3.96,2.86,9.24,2.86,15.84,0,7.34-1.25,14.78-3.74,22.33-2.5,7.56-5.87,14.78-10.12,21.67-4.26,6.9-9.13,13.09-14.63,18.59s-11.33,9.87-17.49,13.09c-6.16,3.22-12.4,4.84-18.7,4.84Z"/>
      <path class="cls-1" d="M322.52,163.9l20.24-95.7,1.76,1.98-25.96-1.1.44-3.74,31.24-5.72,2.42,1.98-6.82,35.42-.44,2.2-4.18,19.8c-1.62,7.48-3.08,14.85-4.4,22.11s-2.79,14.85-4.4,22.77l-8.58,1.32-1.32-1.32ZM343.2,105.6l-1.54-6.16h1.76c3.37-7.04,7.11-13.6,11.22-19.69,4.1-6.08,8.43-11.04,12.98-14.85,4.54-3.81,9.17-5.72,13.86-5.72,3.37,0,6.08.44,8.14,1.32,2.05.88,3.59,2.28,4.62,4.18-.15,2.5-.92,4.48-2.31,5.94-1.4,1.47-3.41,2.2-6.05,2.2-2.06,0-4.07-.47-6.05-1.43-1.98-.95-4.15-2.31-6.49-4.07l-2.86-2.42,7.48-1.54v1.1c-3.96,1.76-7.92,4.58-11.88,8.47-3.96,3.89-7.81,8.58-11.55,14.08s-7.52,11.7-11.33,18.59Z"/>
      <path class="cls-1" d="M425.7,166.76c-5.58,0-10.71-1.32-15.4-3.96-4.7-2.64-8.47-6.71-11.33-12.21s-4.29-12.65-4.29-21.45,1.5-17.12,4.51-25.41c3-8.28,7.11-15.76,12.32-22.44,5.2-6.67,11.11-12.02,17.71-16.06,6.6-4.03,13.56-6.05,20.9-6.05,5.86,0,10.7,1.47,14.52,4.4,3.81,2.94,5.72,7.33,5.72,13.2,0,4.7-1.4,9.32-4.18,13.86-2.79,4.55-7.04,8.99-12.76,13.31-5.72,4.33-12.98,8.4-21.78,12.21-8.8,3.82-19.22,7.34-31.24,10.56l-.44-4.4c13.78-3.66,25.26-7.92,34.43-12.76,9.16-4.84,15.98-9.97,20.46-15.4,4.47-5.42,6.71-11,6.71-16.72,0-4.1-1.21-7.29-3.63-9.57-2.42-2.27-5.69-3.41-9.79-3.41-5.28,0-10.53,1.76-15.73,5.28-5.21,3.52-9.98,8.29-14.3,14.3-4.33,6.02-7.78,12.73-10.34,20.13-2.57,7.41-3.85,14.93-3.85,22.55,0,10.71,2.31,18.63,6.93,23.76,4.62,5.14,10.67,7.7,18.15,7.7,4.25,0,8.21-.77,11.88-2.31,3.66-1.54,7.07-3.67,10.23-6.38,3.15-2.71,5.97-5.83,8.47-9.35l3.08,2.2c-2.35,3.67-4.84,6.97-7.48,9.9-2.64,2.94-5.54,5.5-8.69,7.7-3.16,2.2-6.46,3.89-9.9,5.06-3.45,1.17-7.08,1.76-10.89,1.76Z"/>
    </g>
    <g>
      <path class="cls-1" d="M229.37,276.94h-.77s-2.31-2.31-6.16-2.31c-6.54,0-13.47,5-13.47,5-.38,0-1.15.77-.38,0,6.16-6.93,53.9-56.98,53.9-72.76,0-3.46-1.93-5-5.39-5-15.79,0-49.28,42.35-73.92,75.07h-.77s-2.7-2.31-6.93-2.31c-6.16,0-13.09,5-13.09,5-.77.77-.77,0-.77,0,6.93-6.93,55.05-56.98,55.05-72.76,0-3.46-1.16-5-4.62-5-13.09,0-36.57,31.57-36.57,31.57h-2.7s24.64-33.88,39.65-33.88c5.78,0,8.86,4.62,8.86,10.78,0,6.54-2.7,14.25-6.93,21.95h1.15c13.09-15.02,30.8-32.72,41.96-32.72,5.78,0,10.01,4.62,10.01,10.78,0,6.54-2.7,14.25-7.31,22.71h1.15c13.47-15.79,31.57-33.49,44.66-33.49,6.93,0,12.32,3.85,12.32,11.55,0,25.41-41.58,41.2-41.58,57.37,0,4.62,3.46,6.54,9.24,6.54,18.09,0,48.51-41.58,48.51-41.58h2.7s-31.57,43.89-51.97,43.89c-8.47,0-15.4-5-15.4-13.86,0-24.25,41.58-38.5,41.58-56.98,0-2.7-1.54-4.62-5.39-4.62-21.95,0-57.37,50.82-76.62,75.07Z"/>
      <path class="cls-1" d="M359.12,200.71h.77s2.31,2.31,6.93,2.31c6.16,0,13.09-5.39,13.09-5.39h.77s-61.6,46.58-61.6,102.41c0,28.87,24.64,53.9,62.75,53.9,117.04,0,150.53-148.99,70.45-148.99s-104.33,110.49-50.05,110.49c14.24,0,25.41-5.39,34.26-12.71,1.16-.77,2.31,0,1.16.77-8.86,8.08-20.79,13.47-35.42,13.47-57.37,0-29.26-113.96,51.59-113.96s52.36,152.07-71.99,152.07c-44.28,0-66.99-28.87-66.99-61.98,0-50.05,44.28-92.4,44.28-92.4ZM399.54,161.44c0,4.62-10.78,12.71-15.02,12.71-4.62,0,1.16-16.94,9.24-16.94,3.08,0,5.78,1.92,5.78,4.23Z"/>
    </g>
  </g>
</svg>